<svg xmlns="http://www.w3.org/2000/svg" viewBox="0 0 24 24" fill="none" stroke="currentColor" stroke-width="1.5" stroke-linecap="round" stroke-linejoin="round">
  <path d="M12 2v20M8.5 4c0 1.5 1.5 3.5 3.5 3.5 2 0 3.5-2 3.5-3.5M8.5 8c0 1.5 1.5 3.5 3.5 3.5 2 0 3.5-2 3.5-3.5M8.5 12c0 1.5 1.5 3.5 3.5 3.5 2 0 3.5-2 3.5-3.5M8.5 16c0 1.5 1.5 3.5 3.5 3.5 2 0 3.5-2 3.5-3.5"/>
  <path d="M5.5 6c1.5 0 3.5 1.5 3.5 3.5 0 2-2 3.5-3.5 3.5M5.5 10c1.5 0 3.5 1.5 3.5 3.5 0 2-2 3.5-3.5 3.5M18.5 6c-1.5 0-3.5 1.5-3.5 3.5 0 2 2 3.5 3.5 3.5M18.5 10c-1.5 0-3.5 1.5-3.5 3.5 0 2 2 3.5 3.5 3.5"/>
</svg> 