<svg width="800" height="600" viewBox="0 0 800 600" xmlns="http://www.w3.org/2000/svg">
  <!-- Sky -->
  <rect width="800" height="300" fill="#87CEEB"/>
  
  <!-- Field -->
  <rect y="300" width="800" height="300" fill="#FFD700"/>
  
  <!-- Wheat stalks in the field -->
  <g stroke="#8B4513" stroke-width="2">
    <!-- Row 1 -->
    <line x1="50" y1="320" x2="50" y2="380" />
    <line x1="150" y1="320" x2="150" y2="390" />
    <line x1="250" y1="320" x2="250" y2="385" />
    <line x1="350" y1="320" x2="350" y2="375" />
    <line x1="450" y1="320" x2="450" y2="395" />
    <line x1="550" y1="320" x2="550" y2="380" />
    <line x1="650" y1="320" x2="650" y2="385" />
    <line x1="750" y1="320" x2="750" y2="390" />
    
    <!-- Row 2 -->
    <line x1="100" y1="400" x2="100" y2="470" />
    <line x1="200" y1="400" x2="200" y2="465" />
    <line x1="300" y1="400" x2="300" y2="475" />
    <line x1="400" y1="400" x2="400" y2="460" />
    <line x1="500" y1="400" x2="500" y2="470" />
    <line x1="600" y1="400" x2="600" y2="465" />
    <line x1="700" y1="400" x2="700" y2="475" />
    
    <!-- Row 3 -->
    <line x1="50" y1="480" x2="50" y2="550" />
    <line x1="150" y1="480" x2="150" y2="540" />
    <line x1="250" y1="480" x2="250" y2="545" />
    <line x1="350" y1="480" x2="350" y2="555" />
    <line x1="450" y1="480" x2="450" y2="540" />
    <line x1="550" y1="480" x2="550" y2="550" />
    <line x1="650" y1="480" x2="650" y2="545" />
    <line x1="750" y1="480" x2="750" y2="555" />
  </g>
  
  <!-- Sun -->
  <circle cx="700" cy="100" r="50" fill="#FDB813" />
  <g stroke="#FDB813" stroke-width="3">
    <line x1="700" y1="30" x2="700" y2="10" />
    <line x1="700" y1="190" x2="700" y2="170" />
    <line x1="630" y1="100" x2="610" y2="100" />
    <line x1="790" y1="100" x2="770" y2="100" />
    <line x1="648" y1="48" x2="634" y2="34" />
    <line x1="766" y1="166" x2="752" y2="152" />
    <line x1="648" y1="152" x2="634" y2="166" />
    <line x1="766" y1="34" x2="752" y2="48" />
  </g>
  
  <!-- Horizon line -->
  <line x1="0" y1="300" x2="800" y2="300" stroke="#0057B7" stroke-width="2" />
</svg> 