<?xml version="1.0" encoding="utf-8" ?>
<svg xmlns="http://www.w3.org/2000/svg" xmlns:xlink="http://www.w3.org/1999/xlink" width="1024" height="1024">
	<path fill="#FED227" d="M65.6463 538.56C58.4482 419.989 98.6795 303.42 177.479 214.529C256.491 125.541 367.656 71.6388 486.458 64.711C605.689 57.8909 722.722 98.8668 811.66 178.571C900.024 258.196 953.137 369.663 959.315 488.449C961.6 530.689 956.891 571.866 948.274 613.19C921.246 729.25 849.028 829.729 747.637 892.341C703.383 919.602 655.855 937.874 605.258 949.348C574.489 955.228 543.349 959.031 511.98 959.003C479.885 959.644 444.876 955.224 413.69 947.703C408.664 946.977 403.479 945.427 398.548 944.181C375.154 938.124 352.325 930.066 330.311 920.096C295.255 903.977 262.624 884.511 232.432 860.429C153.538 797.072 98.4036 708.884 75.997 610.211C72.4758 594.217 69.7196 578.064 67.738 561.807C66.8512 554.072 66.5137 546.289 65.6463 538.56Z"/>
	<path fill="#007FBE" d="M65.6463 538.56C58.4482 419.989 98.6795 303.42 177.479 214.529C256.491 125.541 367.656 71.6388 486.458 64.711C605.689 57.8909 722.722 98.8668 811.66 178.571C900.024 258.196 953.137 369.663 959.315 488.449C961.6 530.689 956.891 571.866 948.274 613.19C938.066 611.348 927.481 610.477 917.16 609.484C898.032 607.662 878.86 606.339 859.663 605.517C848.001 605.079 835.371 605.786 823.898 604.4C823.085 604.302 823.485 604.434 822.711 603.712C822.76 602.174 823.492 601.273 824.704 600.391C827.308 598.496 830.888 597.326 833.822 595.997C840.058 593.17 845.586 589.156 850.483 584.386C868.197 567.13 872.765 545.011 872.999 521.097C867.564 523.805 862.048 526.438 856.78 529.463C839.811 539.208 828.845 552.644 823.708 571.563L822.896 570.978C820.922 567.47 822.498 556.088 821.927 551.344C821.329 545.217 821.908 538.471 821.953 532.289C832.709 526.951 843.335 520.602 851.919 512.116C869.068 495.164 872.999 474.592 873.142 451.305C867.309 454.03 861.506 456.77 855.962 460.059C835.122 472.421 828.006 486.934 822.204 509.717C821.229 494.085 821.745 477.633 821.467 461.91C832.567 456.426 843.513 450.303 852.341 441.48C869.364 424.467 872.958 403.147 873 379.984C867.996 382.029 862.999 384.173 858.245 386.754C840.546 396.36 829.491 410.321 823.771 429.524C821.524 427.422 821.979 422.258 821.488 419.227C820.79 411.839 820.914 401.971 823.383 394.971C824.608 391.496 826.742 388.252 828.483 385.002C832.494 377.514 835.058 369.646 836.05 361.199C838.83 337.515 829.957 316.814 815.462 298.573C810.804 304.925 806.181 311.232 802.688 318.328C793.509 336.971 791.836 360.495 800.153 379.787C803.266 387.007 808.626 392.586 809.022 400.847C809.031 401.033 809.036 401.219 809.043 401.404C808.541 406.51 810.496 425.686 807.36 428.468C801.031 408.609 788.603 394.811 770.156 385.236C766.238 383.202 762.138 381.291 757.982 379.79C758.345 403.259 762.315 425.621 779.934 442.542C788.388 450.661 798.897 456.328 808.977 462.149C809.199 478.42 810.105 494.757 809.255 511.019C803.543 487.544 797.161 473.031 775.759 460.013C770.077 456.556 764.028 453.609 757.989 450.826C758.359 473.934 762.386 495.578 779.557 512.334C787.983 520.557 798.439 526.956 809.021 532.008C809.008 547.858 809.212 563.738 808.966 579.584L808.826 579.125C807.484 574.553 807.002 569.805 805.471 565.27C799.543 547.708 786.228 536.141 770.437 527.361C766.372 525.1 762.191 522.998 758.019 520.941C758.085 544.052 762.153 565.577 779.107 582.488C782.883 586.237 787.055 589.565 791.549 592.415C795.608 594.97 806.688 598.259 807.841 603.066C807.473 603.866 807.552 604.195 806.691 604.546C804.504 605.437 757.941 605.354 751.29 605.521C721.032 606.277 691.031 609.438 661.023 613.21C661.168 600.484 661.913 587.77 661.995 575.046C662.127 554.546 661.443 533.928 660.93 513.427C686.018 503.213 708.098 486.778 718.981 461.179C726.181 444.243 726.52 427.326 727.883 409.395C702.114 420.045 678.833 434.325 667.76 461.164C665.01 467.831 663.137 474.824 661.666 481.874L659.889 482.885C660.218 473.763 659.76 464.609 659.657 455.483C659.595 445.003 659.714 434.524 660.014 424.049C672.962 417.602 685.838 410.578 696.667 400.867C722.622 377.591 726.281 351.309 728.013 318.407C718.994 322.105 709.951 326.209 701.69 331.4C679.825 345.14 667.035 363.932 661.382 388.987C659.503 386.546 660.47 378.77 660.065 375.242C659.877 360.786 659.638 346.046 660.959 331.639C688.502 317.689 712.1 300.936 722.067 270.221C726.696 255.956 726.751 242.319 727.842 227.636C703.036 237.53 679.62 253.029 668.652 278.397C664.515 287.967 663.289 298.178 660.202 308.025C659.935 296.996 659.793 285.965 659.777 274.933C659.756 268.04 659.167 260.53 660.621 253.782C662.53 244.919 669.728 238.107 672.798 229.629C684.892 196.233 677.609 154.101 652.664 128.228C634.509 152.277 622.202 178.456 626.43 209.295C627.851 219.656 630.794 229.73 636.13 238.761C638.803 243.286 642.207 247.85 643.81 252.894C647.011 262.971 644.999 291.952 644.753 303.357L644.542 302.753C642.512 296.75 641.716 290.39 639.487 284.451C630.527 260.577 612.016 244.204 589.627 232.986C585.518 230.936 581.311 229.086 577.023 227.442C578.774 258.456 583.125 287.213 607.661 309.006C618.666 318.781 631.497 325.889 644.496 332.628C644.944 348.942 646.006 365.683 644.478 381.955C643.943 382.908 643.42 383.867 642.907 384.832L642.143 385.044C636.767 361.778 621.203 343.321 601.24 330.909C593.481 326.085 585.372 322.082 577.001 318.445C578.519 349.991 582.38 376.949 607.039 399.432C614.003 405.78 621.636 411.035 629.891 415.556C634.725 418.203 639.855 420.543 644.423 423.629C644.831 444.826 645.716 466.266 644.735 487.457C643.336 481.107 642.101 474.587 640.053 468.417C633.67 449.184 620.503 433.83 603.589 422.939C595.179 417.524 586.173 413.084 577.023 409.072C578.681 442.255 583.281 469.438 609.267 492.899C619.149 501.821 631.121 509.664 644.008 513.378C643.645 534.177 642.868 555.001 642.974 575.804C643.042 589.149 643.997 602.479 644.051 615.821C623.057 618.608 602.518 623.629 582.054 628.979C559.166 634.963 536.609 641.457 514.517 649.99C508.316 645.682 502 641.541 495.577 637.571L494.93 601.448C514.886 593.059 531.896 581.485 540.264 560.697C545.291 548.207 546.44 534.672 546.608 521.33C525.897 531.021 506.757 542.248 498.501 564.829C496.473 570.376 495.341 576.047 494.403 581.865C493.384 565.451 495.079 548.548 495.016 532.071C516.823 519.661 535.965 507.203 542.995 481.527C545.683 471.711 546.378 461.549 546.61 451.418C527.699 458.349 509.537 470.322 500.817 489.088C497.604 496.002 495.654 503.422 494.278 510.899C493.844 504.318 494.331 497.658 494.553 491.073C494.976 481.225 495.114 471.367 494.965 461.511C516.769 449.528 535.194 437.285 542.445 412.096C545.441 401.689 546.256 390.69 546.501 379.902C526.185 388.234 508.941 399.206 500.07 420.133C497.165 426.987 495.503 434.114 494.339 441.442C493.459 429.972 493.336 407.774 495.848 396.853C497.483 389.745 502.841 383.886 505.318 377.046C515.072 350.106 507.237 321.049 488.616 299.893C473.817 320.393 464.697 338.683 468.861 364.758C469.844 370.916 471.453 376.995 474.457 382.487C476.231 385.73 478.371 388.954 479.777 392.369C482.853 399.839 482.796 431.757 481.6 440.412C478.866 421.112 470.305 404.56 454.519 392.747C447.261 387.382 439.291 383.053 430.838 379.887C431.279 402.811 435.012 425.177 452.199 441.807C460.893 450.219 471.728 455.817 481.922 462.154C481.994 478.257 482.368 494.472 481.796 510.567C478.57 491.085 470.315 475.172 454.041 463.548C446.674 458.285 438.663 454.449 430.532 450.555C431.148 474.489 434.695 495.878 452.803 513.125C461.139 521.065 471.19 526.72 481.299 532.068C481.578 548.493 482.853 565.351 481.688 581.718C477.033 560.211 469.684 543.985 450.616 531.723C444.317 527.672 437.416 524.093 430.549 521.094C432.084 545.786 434.76 567.523 454.332 584.852C462.181 591.801 471.675 597.377 481.492 601.037C480.939 610.43 481.036 619.814 480.938 629.218C373.983 569.164 240.718 528.936 117.653 533.948C100.311 534.654 82.7623 535.511 65.6463 538.56Z"/>
	<path fill="#FED227" d="M296.276 181.724C346.084 176.976 390.268 213.608 394.831 263.433C399.394 313.259 362.598 357.306 312.756 361.684C263.175 366.038 219.409 329.477 214.87 279.913C210.332 230.349 246.729 186.447 296.276 181.724Z"/>
	<path fill="#007FBE" d="M330.311 920.096C356.07 885.679 382.433 852.495 412.578 821.762C510.241 721.295 638.488 656.087 777.205 636.363C781.04 635.81 784.913 635.123 788.771 634.806C754.956 645.225 723.501 655.518 691.453 670.851C570.764 728.595 477.578 831.804 413.69 947.703C408.664 946.977 403.479 945.427 398.548 944.181C375.154 938.124 352.325 930.066 330.311 920.096Z"/>
	<path fill="#007FBE" d="M511.98 959.003C516.168 949.621 520.142 940.154 524.647 930.915C541.346 896.794 561.001 864.201 583.388 833.51C648.97 743.584 737.64 671.879 846.552 643.242C863.274 638.845 879.942 636.37 896.982 633.699L897.362 635.041C880.914 639.386 864.756 646.321 849.402 653.577C765.222 693.359 700.398 764.246 654.084 843.766C640.798 866.719 628.984 890.493 618.714 914.945C613.968 926.29 610.102 938.088 605.258 949.348C574.489 955.228 543.349 959.031 511.98 959.003Z"/>
	<path fill="#1F87AB" d="M809.043 401.404C809.945 407.048 810.364 434.713 809.544 440.384C809.01 436.346 808.283 432.434 807.36 428.468C810.496 425.686 808.541 406.51 809.043 401.404Z"/>
	<path fill="#1F87AB" d="M821.524 580.427C821.462 570.793 821.122 560.95 821.927 551.344C822.498 556.088 820.922 567.47 822.896 570.978L823.708 571.563C823.194 574.642 822.526 577.471 821.524 580.427Z"/>
	<path fill="#1F87AB" d="M821.488 419.227C821.979 422.258 821.524 427.422 823.771 429.524C823.09 433.53 822.325 437.471 821.368 441.421C821.64 434.029 821.241 426.628 821.488 419.227Z"/>
	<path fill="#1F87AB" d="M644.478 381.955C644.499 386.669 644.47 391.328 644.136 396.035C643.438 392.392 642.612 388.722 642.143 385.044L642.907 384.832C643.42 383.867 643.943 382.908 644.478 381.955Z"/>
	<path fill="#1F87AB" d="M660.065 375.242C660.47 378.77 659.503 386.546 661.382 388.987C661.526 391.969 660.768 395.144 660.255 398.07C659.688 390.512 659.948 382.816 660.065 375.242Z"/>
	<path fill="#1F87AB" d="M661.666 481.874C661.338 485.449 661.014 488.967 660.287 492.486C660.111 489.298 659.841 486.077 659.889 482.885L661.666 481.874Z"/>
	<path fill="#1F87AB" d="M896.982 633.699C899.2 633.137 901.624 632.245 903.921 632.465C902.57 633.956 899.283 634.527 897.362 635.041L896.982 633.699Z"/>
	<path fill="#007FBE" d="M114.661 567.225C119.318 566.693 124.187 566.995 128.848 567.342C216.227 573.839 296.202 605.381 360.931 664.972C375.303 678.203 388.228 692.612 400.972 707.381C394.811 711.2 388.687 715.081 382.602 719.021C373.621 724.855 364.999 731.144 356.369 737.476C309.393 668.704 260.085 619.22 181.255 588.714C167.79 583.64 154.147 579.051 140.353 574.957C133.101 572.826 122.085 571.03 115.525 567.684C115.235 567.535 114.949 567.378 114.661 567.225Z"/>
	<path fill="#007FBE" d="M127.532 604.458C128.406 604.484 129.216 604.556 130.076 604.714C144.749 607.421 160.292 614.819 173.86 620.885C244.611 652.518 287.032 694.689 331.156 757.288C326.868 760.689 322.717 764.271 318.529 767.793C313.744 772.489 308.664 776.933 303.717 781.46C267.255 720.678 223.073 664.594 163.39 625.133C151.898 617.534 139.591 611.104 127.532 604.458Z"/>
	<path fill="#007FBE" d="M282.035 592.116C292.996 593.709 304.073 598.15 314.549 601.644C368.382 619.6 410.65 643.067 455.962 676.82C452.596 678.725 449.166 680.527 445.767 682.373L426.73 693.223C396.779 660.595 361.644 633.139 322.744 611.964C315.678 608.154 308.527 604.407 301.222 601.073C295.203 598.327 287.34 595.935 282.035 592.116Z"/>
</svg>
