<svg width="2903" height="895" viewBox="0 0 2903 895" fill="none" xmlns="http://www.w3.org/2000/svg">
<g clip-path="url(#clip0_1_18)">
<path d="M14.6463 474.56C7.44825 355.989 47.6796 239.42 126.479 150.529C205.491 61.541 316.656 7.63879 435.458 0.71099C554.689 -6.10911 671.722 34.8668 760.66 114.571C849.024 194.196 902.137 305.663 908.315 424.449C910.6 466.689 905.891 507.866 897.274 549.19C870.246 665.25 798.028 765.729 696.637 828.341C652.383 855.602 604.855 873.874 554.258 885.348C523.489 891.228 492.349 895.031 460.98 895.003C428.885 895.644 393.876 891.224 362.69 883.703C357.664 882.977 352.479 881.427 347.548 880.181C324.154 874.124 301.325 866.066 279.311 856.096C244.255 839.977 211.624 820.511 181.432 796.429C102.538 733.072 47.4036 644.884 24.997 546.211C21.4758 530.217 18.7196 514.064 16.738 497.807C15.8512 490.072 15.5137 482.289 14.6463 474.56Z" fill="#FED227"/>
<path d="M14.6463 474.56C7.44825 355.989 47.6796 239.42 126.479 150.529C205.491 61.541 316.656 7.63879 435.458 0.71099C554.689 -6.10911 671.722 34.8668 760.66 114.571C849.024 194.196 902.137 305.663 908.315 424.449C910.6 466.689 905.891 507.866 897.274 549.19C887.066 547.348 876.481 546.477 866.16 545.484C847.032 543.662 827.86 542.339 808.663 541.517C797.001 541.079 784.371 541.786 772.898 540.4C772.085 540.302 772.485 540.434 771.711 539.712C771.76 538.174 772.492 537.273 773.704 536.391C776.308 534.496 779.888 533.326 782.822 531.997C789.058 529.17 794.586 525.156 799.483 520.386C817.197 503.13 821.765 481.011 821.999 457.097C816.564 459.805 811.048 462.438 805.78 465.463C788.811 475.208 777.845 488.644 772.708 507.563L771.896 506.978C769.922 503.47 771.498 492.088 770.927 487.344C770.329 481.217 770.908 474.471 770.953 468.289C781.709 462.951 792.335 456.602 800.919 448.116C818.068 431.164 821.999 410.592 822.142 387.305C816.309 390.03 810.506 392.77 804.962 396.059C784.122 408.421 777.006 422.934 771.204 445.717C770.229 430.085 770.745 413.633 770.467 397.91C781.567 392.426 792.513 386.303 801.341 377.48C818.364 360.467 821.958 339.147 822 315.984C816.996 318.029 811.999 320.173 807.245 322.754C789.546 332.36 778.491 346.321 772.771 365.524C770.524 363.422 770.979 358.258 770.488 355.227C769.79 347.839 769.914 337.971 772.383 330.971C773.608 327.496 775.742 324.252 777.483 321.002C781.494 313.514 784.058 305.646 785.05 297.199C787.83 273.515 778.957 252.814 764.462 234.573C759.804 240.925 755.181 247.232 751.688 254.328C742.509 272.971 740.836 296.495 749.153 315.787C752.266 323.007 757.626 328.586 758.022 336.847C758.031 337.033 758.036 337.219 758.043 337.404C757.541 342.51 759.496 361.686 756.36 364.468C750.031 344.609 737.603 330.811 719.156 321.236C715.238 319.202 711.138 317.291 706.982 315.79C707.345 339.259 711.315 361.621 728.934 378.542C737.388 386.661 747.897 392.328 757.977 398.149C758.199 414.42 759.105 430.757 758.255 447.019C752.543 423.544 746.161 409.031 724.759 396.013C719.077 392.556 713.028 389.609 706.989 386.826C707.359 409.934 711.386 431.578 728.557 448.334C736.983 456.557 747.439 462.956 758.021 468.008C758.008 483.858 758.212 499.738 757.966 515.584L757.826 515.125C756.484 510.553 756.002 505.805 754.471 501.27C748.543 483.708 735.228 472.141 719.437 463.361C715.372 461.1 711.191 458.998 707.019 456.941C707.085 480.052 711.153 501.577 728.107 518.488C731.883 522.237 736.055 525.565 740.549 528.415C744.608 530.97 755.688 534.259 756.841 539.066C756.473 539.866 756.552 540.195 755.691 540.546C753.504 541.437 706.941 541.354 700.29 541.521C670.032 542.277 640.031 545.438 610.023 549.21C610.168 536.484 610.913 523.77 610.995 511.046C611.127 490.546 610.443 469.928 609.93 449.427C635.018 439.213 657.098 422.778 667.981 397.179C675.181 380.243 675.52 363.326 676.883 345.395C651.114 356.045 627.833 370.325 616.76 397.164C614.01 403.831 612.137 410.824 610.666 417.874L608.889 418.885C609.218 409.763 608.76 400.609 608.657 391.483C608.595 381.003 608.714 370.524 609.014 360.049C621.962 353.602 634.838 346.578 645.667 336.867C671.622 313.591 675.281 287.309 677.013 254.407C667.994 258.105 658.951 262.209 650.69 267.4C628.825 281.14 616.035 299.932 610.382 324.987C608.503 322.546 609.47 314.77 609.065 311.242C608.877 296.786 608.638 282.046 609.959 267.639C637.502 253.689 661.1 236.936 671.067 206.221C675.696 191.956 675.751 178.319 676.842 163.636C652.036 173.53 628.62 189.029 617.652 214.397C613.515 223.967 612.289 234.178 609.202 244.025C608.935 232.996 608.793 221.965 608.777 210.933C608.756 204.04 608.167 196.53 609.621 189.782C611.53 180.919 618.728 174.107 621.798 165.629C633.892 132.233 626.609 90.101 601.664 64.228C583.509 88.277 571.202 114.456 575.43 145.295C576.851 155.656 579.794 165.73 585.13 174.761C587.803 179.286 591.207 183.85 592.81 188.894C596.011 198.971 593.999 227.952 593.753 239.357L593.542 238.753C591.512 232.75 590.716 226.39 588.487 220.451C579.527 196.577 561.016 180.204 538.627 168.986C534.518 166.936 530.311 165.086 526.023 163.442C527.774 194.456 532.125 223.213 556.661 245.006C567.666 254.781 580.497 261.889 593.496 268.628C593.944 284.942 595.006 301.683 593.478 317.955C592.943 318.908 592.42 319.867 591.907 320.832L591.143 321.044C585.767 297.778 570.203 279.321 550.24 266.909C542.481 262.085 534.372 258.082 526.001 254.445C527.519 285.991 531.38 312.949 556.039 335.432C563.003 341.78 570.636 347.035 578.891 351.556C583.725 354.203 588.855 356.543 593.423 359.629C593.831 380.826 594.716 402.266 593.735 423.457C592.336 417.107 591.101 410.587 589.053 404.417C582.67 385.184 569.503 369.83 552.589 358.939C544.179 353.524 535.173 349.084 526.023 345.072C527.681 378.255 532.281 405.438 558.267 428.899C568.149 437.821 580.121 445.664 593.008 449.378C592.645 470.177 591.868 491.001 591.974 511.804C592.042 525.149 592.997 538.479 593.051 551.821C572.057 554.608 551.518 559.629 531.054 564.979C508.166 570.963 485.609 577.457 463.517 585.99C457.316 581.682 451 577.541 444.577 573.571L443.93 537.448C463.886 529.059 480.896 517.485 489.264 496.697C494.291 484.207 495.44 470.672 495.608 457.33C474.897 467.021 455.757 478.248 447.501 500.829C445.473 506.376 444.341 512.047 443.403 517.865C442.384 501.451 444.079 484.548 444.016 468.071C465.823 455.661 484.965 443.203 491.995 417.527C494.683 407.711 495.378 397.549 495.61 387.418C476.699 394.349 458.537 406.322 449.817 425.088C446.604 432.002 444.654 439.422 443.278 446.899C442.844 440.318 443.331 433.658 443.553 427.073C443.976 417.225 444.114 407.367 443.965 397.511C465.769 385.528 484.194 373.285 491.445 348.096C494.441 337.689 495.256 326.69 495.501 315.902C475.185 324.234 457.941 335.206 449.07 356.133C446.165 362.987 444.503 370.114 443.339 377.442C442.459 365.972 442.336 343.774 444.848 332.853C446.483 325.745 451.841 319.886 454.318 313.046C464.072 286.106 456.237 257.049 437.616 235.893C422.817 256.393 413.697 274.683 417.861 300.758C418.844 306.916 420.453 312.995 423.457 318.487C425.231 321.73 427.371 324.954 428.777 328.369C431.853 335.839 431.796 367.757 430.6 376.412C427.866 357.112 419.305 340.56 403.519 328.747C396.261 323.382 388.291 319.053 379.838 315.887C380.279 338.811 384.012 361.177 401.199 377.807C409.893 386.219 420.728 391.817 430.922 398.154C430.994 414.257 431.368 430.472 430.796 446.567C427.57 427.085 419.315 411.172 403.041 399.548C395.674 394.285 387.663 390.449 379.532 386.555C380.148 410.489 383.695 431.878 401.803 449.125C410.139 457.065 420.19 462.72 430.299 468.068C430.578 484.493 431.853 501.351 430.688 517.718C426.033 496.211 418.684 479.985 399.616 467.723C393.317 463.672 386.416 460.093 379.549 457.094C381.084 481.786 383.76 503.523 403.332 520.852C411.181 527.801 420.675 533.377 430.492 537.037C429.939 546.43 430.036 555.814 429.938 565.218C322.983 505.164 189.718 464.936 66.653 469.948C49.311 470.654 31.7623 471.511 14.6463 474.56Z" fill="#007FBE"/>
<path d="M245.276 117.724C295.084 112.976 339.268 149.608 343.831 199.433C348.394 249.259 311.598 293.306 261.756 297.684C212.175 302.038 168.409 265.477 163.87 215.913C159.332 166.349 195.729 122.447 245.276 117.724Z" fill="#FED227"/>
<path d="M279.311 856.096C305.07 821.679 331.433 788.495 361.578 757.762C459.241 657.295 587.488 592.087 726.205 572.363C730.04 571.81 733.913 571.123 737.771 570.806C703.956 581.225 672.501 591.518 640.453 606.851C519.764 664.595 426.578 767.804 362.69 883.703C357.664 882.977 352.479 881.427 347.548 880.181C324.154 874.124 301.325 866.066 279.311 856.096Z" fill="#007FBE"/>
<path d="M460.98 895.003C465.168 885.621 469.142 876.154 473.647 866.915C490.346 832.794 510.001 800.201 532.388 769.51C597.97 679.584 686.64 607.879 795.552 579.242C812.274 574.845 828.942 572.37 845.982 569.699L846.362 571.041C829.914 575.386 813.756 582.321 798.402 589.577C714.222 629.359 649.398 700.246 603.084 779.766C589.798 802.719 577.984 826.493 567.714 850.945C562.968 862.29 559.102 874.088 554.258 885.348C523.489 891.228 492.349 895.031 460.98 895.003Z" fill="#007FBE"/>
<path d="M758.043 337.404C758.945 343.048 759.364 370.713 758.544 376.384C758.01 372.346 757.283 368.434 756.36 364.468C759.496 361.686 757.541 342.51 758.043 337.404Z" fill="#1F87AB"/>
<path d="M770.524 516.427C770.462 506.793 770.122 496.95 770.927 487.344C771.498 492.088 769.922 503.47 771.896 506.978L772.708 507.563C772.194 510.642 771.526 513.471 770.524 516.427Z" fill="#1F87AB"/>
<path d="M770.488 355.227C770.979 358.258 770.524 363.422 772.771 365.524C772.09 369.53 771.325 373.471 770.368 377.421C770.64 370.029 770.241 362.628 770.488 355.227Z" fill="#1F87AB"/>
<path d="M593.478 317.955C593.499 322.669 593.47 327.328 593.136 332.035C592.438 328.392 591.612 324.722 591.143 321.044L591.907 320.832C592.42 319.867 592.943 318.908 593.478 317.955Z" fill="#1F87AB"/>
<path d="M609.065 311.242C609.47 314.77 608.503 322.546 610.382 324.987C610.526 327.969 609.768 331.144 609.255 334.07C608.688 326.512 608.948 318.816 609.065 311.242Z" fill="#1F87AB"/>
<path d="M610.666 417.874C610.338 421.449 610.014 424.967 609.287 428.486C609.111 425.298 608.841 422.077 608.889 418.885L610.666 417.874Z" fill="#1F87AB"/>
<path d="M845.982 569.699C848.2 569.137 850.624 568.245 852.921 568.465C851.57 569.956 848.283 570.527 846.362 571.041L845.982 569.699Z" fill="#1F87AB"/>
<path d="M63.661 503.225C68.318 502.693 73.187 502.995 77.848 503.342C165.227 509.839 245.202 541.381 309.931 600.972C324.303 614.203 337.228 628.612 349.972 643.381C343.811 647.2 337.687 651.081 331.602 655.021C322.621 660.855 313.999 667.144 305.369 673.476C258.393 604.704 209.085 555.22 130.255 524.714C116.79 519.64 103.147 515.051 89.353 510.957C82.101 508.826 71.085 507.03 64.525 503.684C64.235 503.535 63.949 503.378 63.661 503.225Z" fill="#007FBE"/>
<path d="M76.532 540.458C77.406 540.484 78.216 540.556 79.076 540.714C93.749 543.421 109.292 550.819 122.86 556.885C193.611 588.518 236.032 630.689 280.156 693.288C275.868 696.689 271.717 700.271 267.529 703.793C262.744 708.489 257.664 712.933 252.717 717.46C216.255 656.678 172.073 600.594 112.39 561.133C100.898 553.534 88.591 547.104 76.532 540.458Z" fill="#007FBE"/>
<path d="M231.035 528.116C241.996 529.709 253.073 534.15 263.549 537.644C317.382 555.6 359.65 579.067 404.962 612.82C401.596 614.725 398.166 616.527 394.767 618.373L375.73 629.223C345.779 596.595 310.644 569.139 271.744 547.964C264.678 544.154 257.527 540.407 250.222 537.073C244.203 534.327 236.34 531.935 231.035 528.116Z" fill="#007FBE"/>
<path d="M1005.86 499.906V571H999.904V499.906H1005.86ZM1030.23 499.906V505.082H975.588V499.906H1030.23ZM1092.92 531.645V539.262C1092.92 544.242 1092.27 548.751 1090.97 552.787C1089.7 556.791 1087.84 560.225 1085.4 563.09C1082.99 565.954 1080.1 568.152 1076.71 569.682C1073.33 571.212 1069.52 571.977 1065.29 571.977C1061.15 571.977 1057.38 571.212 1053.96 569.682C1050.57 568.152 1047.66 565.954 1045.22 563.09C1042.78 560.225 1040.89 556.791 1039.55 552.787C1038.22 548.751 1037.55 544.242 1037.55 539.262V531.645C1037.55 526.664 1038.2 522.172 1039.5 518.168C1040.84 514.132 1042.73 510.681 1045.17 507.816C1047.61 504.952 1050.52 502.755 1053.91 501.225C1057.29 499.695 1061.05 498.93 1065.19 498.93C1069.42 498.93 1073.23 499.695 1076.61 501.225C1080 502.755 1082.91 504.952 1085.35 507.816C1087.79 510.681 1089.67 514.132 1090.97 518.168C1092.27 522.172 1092.92 526.664 1092.92 531.645ZM1086.96 539.262V531.547C1086.96 527.348 1086.48 523.572 1085.5 520.219C1084.56 516.866 1083.14 514.001 1081.25 511.625C1079.4 509.249 1077.12 507.426 1074.42 506.156C1071.71 504.887 1068.64 504.252 1065.19 504.252C1061.83 504.252 1058.82 504.887 1056.15 506.156C1053.49 507.426 1051.21 509.249 1049.32 511.625C1047.46 514.001 1046.03 516.866 1045.02 520.219C1044.04 523.572 1043.56 527.348 1043.56 531.547V539.262C1043.56 543.493 1044.04 547.302 1045.02 550.688C1046.03 554.04 1047.48 556.921 1049.37 559.33C1051.26 561.706 1053.53 563.529 1056.2 564.799C1058.9 566.068 1061.93 566.703 1065.29 566.703C1068.77 566.703 1071.84 566.068 1074.51 564.799C1077.18 563.529 1079.45 561.706 1081.3 559.33C1083.16 556.921 1084.56 554.04 1085.5 550.688C1086.48 547.302 1086.96 543.493 1086.96 539.262ZM1132.57 536.82H1112.55L1112.45 531.742H1129.69C1133.21 531.742 1136.2 531.238 1138.67 530.229C1141.15 529.219 1143.02 527.722 1144.29 525.736C1145.59 523.718 1146.24 521.244 1146.24 518.314C1146.24 515.32 1145.61 512.846 1144.34 510.893C1143.07 508.907 1141.16 507.442 1138.62 506.498C1136.09 505.554 1132.9 505.082 1129.05 505.082H1114.11V571H1108.11V499.906H1129.05C1132.67 499.906 1135.91 500.264 1138.77 500.98C1141.64 501.697 1144.08 502.82 1146.1 504.35C1148.11 505.88 1149.64 507.816 1150.69 510.16C1151.76 512.471 1152.3 515.238 1152.3 518.461C1152.3 521.391 1151.65 524.044 1150.34 526.42C1149.04 528.764 1147.2 530.684 1144.83 532.182C1142.48 533.646 1139.67 534.558 1136.38 534.916L1132.57 536.82ZM1132.13 571H1110.65L1113.72 565.873H1132.13C1135.65 565.873 1138.64 565.287 1141.12 564.115C1143.62 562.911 1145.54 561.202 1146.88 558.988C1148.21 556.775 1148.88 554.138 1148.88 551.078C1148.88 548.376 1148.29 545.951 1147.12 543.803C1145.95 541.654 1144.16 539.962 1141.75 538.725C1139.34 537.455 1136.28 536.82 1132.57 536.82H1120.12L1120.22 531.742H1137.84L1138.92 533.549C1142.11 533.874 1144.89 534.867 1147.27 536.527C1149.68 538.155 1151.53 540.222 1152.83 542.729C1154.17 545.235 1154.84 547.986 1154.84 550.98C1154.84 555.277 1153.88 558.923 1151.96 561.918C1150.07 564.88 1147.41 567.143 1144 568.705C1140.61 570.235 1136.66 571 1132.13 571ZM1210.4 525.883L1196.78 545.023L1190.82 544.975V544.34L1205.23 525.883H1210.4ZM1196.78 544.584L1210.4 563.822H1205.23L1190.82 545.268V544.633L1196.78 544.584ZM1225.49 525.883L1211.87 545.023L1205.91 544.975V544.34L1220.31 525.883H1225.49ZM1211.87 544.584L1225.49 563.822H1220.31L1205.91 545.268V544.633L1211.87 544.584ZM1291.95 531.645V539.262C1291.95 544.242 1291.29 548.751 1289.99 552.787C1288.72 556.791 1286.87 560.225 1284.43 563.09C1282.02 565.954 1279.12 568.152 1275.73 569.682C1272.35 571.212 1268.54 571.977 1264.31 571.977C1260.17 571.977 1256.4 571.212 1252.98 569.682C1249.6 568.152 1246.68 565.954 1244.24 563.09C1241.8 560.225 1239.91 556.791 1238.58 552.787C1237.24 548.751 1236.57 544.242 1236.57 539.262V531.645C1236.57 526.664 1237.23 522.172 1238.53 518.168C1239.86 514.132 1241.75 510.681 1244.19 507.816C1246.63 504.952 1249.55 502.755 1252.93 501.225C1256.32 499.695 1260.08 498.93 1264.21 498.93C1268.44 498.93 1272.25 499.695 1275.64 501.225C1279.02 502.755 1281.94 504.952 1284.38 507.816C1286.82 510.681 1288.69 514.132 1289.99 518.168C1291.29 522.172 1291.95 526.664 1291.95 531.645ZM1285.99 539.262V531.547C1285.99 527.348 1285.5 523.572 1284.52 520.219C1283.58 516.866 1282.16 514.001 1280.28 511.625C1278.42 509.249 1276.14 507.426 1273.44 506.156C1270.74 504.887 1267.66 504.252 1264.21 504.252C1260.86 504.252 1257.85 504.887 1255.18 506.156C1252.51 507.426 1250.23 509.249 1248.34 511.625C1246.49 514.001 1245.05 516.866 1244.04 520.219C1243.07 523.572 1242.58 527.348 1242.58 531.547V539.262C1242.58 543.493 1243.07 547.302 1244.04 550.688C1245.05 554.04 1246.5 556.921 1248.39 559.33C1250.28 561.706 1252.56 563.529 1255.23 564.799C1257.93 566.068 1260.96 566.703 1264.31 566.703C1267.79 566.703 1270.87 566.068 1273.54 564.799C1276.21 563.529 1278.47 561.706 1280.32 559.33C1282.18 556.921 1283.58 554.04 1284.52 550.688C1285.5 547.302 1285.99 543.493 1285.99 539.262ZM1349.66 499.906V505.082H1312.79V571H1306.79V499.906H1349.66ZM1310.7 530.717H1330.37C1335.52 530.717 1339.83 531.563 1343.31 533.256C1346.83 534.916 1349.48 537.26 1351.27 540.287C1353.06 543.282 1353.96 546.781 1353.96 550.785C1353.96 553.747 1353.45 556.465 1352.44 558.939C1351.43 561.413 1349.94 563.562 1347.95 565.385C1345.97 567.175 1343.51 568.559 1340.58 569.535C1337.65 570.512 1334.25 571 1330.37 571H1306.79V499.906H1312.79V565.873H1330.37C1334.54 565.873 1337.91 565.173 1340.48 563.773C1343.05 562.341 1344.94 560.469 1346.14 558.158C1347.35 555.847 1347.95 553.357 1347.95 550.688C1347.95 548.051 1347.35 545.609 1346.14 543.363C1344.94 541.117 1343.05 539.311 1340.48 537.943C1337.91 536.544 1334.54 535.844 1330.37 535.844H1310.7V530.717ZM1374.27 496V501.615C1374.27 503.601 1373.99 505.554 1373.44 507.475C1372.89 509.395 1372.09 511.202 1371.05 512.895C1370.04 514.555 1368.83 516.036 1367.43 517.338L1363.97 514.799C1365.46 512.748 1366.59 510.714 1367.34 508.695C1368.08 506.645 1368.46 504.333 1368.46 501.762V496H1374.27ZM1420.95 532.426V537.553H1390.24V532.426H1420.95ZM1432.18 548.832H1438.19C1437.7 553.617 1436.38 557.751 1434.23 561.234C1432.08 564.685 1429.15 567.338 1425.44 569.193C1421.73 571.049 1417.27 571.977 1412.06 571.977C1407.99 571.977 1404.32 571.212 1401.03 569.682C1397.77 568.152 1394.96 565.987 1392.58 563.188C1390.24 560.355 1388.43 556.97 1387.16 553.031C1385.92 549.092 1385.3 544.714 1385.3 539.896V531.059C1385.3 526.241 1385.92 521.863 1387.16 517.924C1388.43 513.985 1390.25 510.6 1392.63 507.768C1395.01 504.936 1397.85 502.755 1401.17 501.225C1404.53 499.695 1408.29 498.93 1412.45 498.93C1417.53 498.93 1421.89 499.857 1425.54 501.713C1429.22 503.536 1432.11 506.173 1434.23 509.623C1436.38 513.074 1437.7 517.24 1438.19 522.123H1432.18C1431.72 518.282 1430.71 515.027 1429.15 512.357C1427.59 509.688 1425.43 507.654 1422.66 506.254C1419.92 504.822 1416.52 504.105 1412.45 504.105C1409.17 504.105 1406.2 504.74 1403.57 506.01C1400.96 507.279 1398.75 509.102 1396.93 511.479C1395.1 513.855 1393.7 516.687 1392.73 519.975C1391.78 523.262 1391.31 526.924 1391.31 530.961V539.896C1391.31 543.021 1391.6 545.951 1392.19 548.686C1392.81 551.42 1393.69 553.91 1394.83 556.156C1395.97 558.37 1397.37 560.274 1399.03 561.869C1400.72 563.464 1402.64 564.701 1404.79 565.58C1406.97 566.426 1409.39 566.85 1412.06 566.85C1416.23 566.85 1419.71 566.182 1422.51 564.848C1425.34 563.513 1427.54 561.511 1429.1 558.842C1430.67 556.14 1431.69 552.803 1432.18 548.832ZM1508.89 565.873V571H1453.03V565.873H1508.89ZM1454.35 565.873V588.236H1448.39V565.873H1454.35ZM1514.06 565.873L1514.02 588.236H1508.01V565.873H1514.06ZM1501.66 499.906V505.082H1469.34V499.906H1501.66ZM1506.45 499.906V571H1500.49V499.906H1506.45ZM1467.19 499.906H1473.2L1471.93 525.541C1471.7 530.131 1471.24 534.379 1470.56 538.285C1469.91 542.191 1469.09 545.772 1468.12 549.027C1467.14 552.283 1466.07 555.196 1464.89 557.768C1463.72 560.307 1462.5 562.504 1461.23 564.359C1459.96 566.182 1458.68 567.663 1457.38 568.803C1456.11 569.91 1454.88 570.642 1453.71 571H1450V565.873H1453.13C1453.91 565.059 1454.93 563.725 1456.2 561.869C1457.47 559.981 1458.77 557.458 1460.11 554.301C1461.48 551.111 1462.68 547.156 1463.72 542.436C1464.8 537.683 1465.53 532.051 1465.92 525.541L1467.19 499.906ZM1574.07 531.791V536.918H1530.86V531.791H1574.07ZM1532.28 499.906V571H1526.27V499.906H1532.28ZM1578.91 499.906V571H1572.9V499.906H1578.91ZM1621.29 504.154L1596.68 571H1590.43L1617.29 499.906H1621.63L1621.29 504.154ZM1643.65 571L1619 504.154L1618.65 499.906H1623L1649.9 571H1643.65ZM1639.26 545.902V551.078H1601.52V545.902H1639.26ZM1708.25 531.791V536.918H1665.04V531.791H1708.25ZM1666.46 499.906V571H1660.45V499.906H1666.46ZM1713.09 499.906V571H1707.08V499.906H1713.09ZM1737.45 560.551L1777.93 499.906H1783.94V571H1777.93V510.258L1737.45 571H1731.45V499.906H1737.45V560.551ZM1808.55 560.551L1849.03 499.906H1855.03V571H1849.03V510.258L1808.55 571H1802.54V499.906H1808.55V560.551ZM1838.28 482.475H1843.26C1843.26 484.916 1842.69 487.081 1841.55 488.969C1840.45 490.857 1838.84 492.338 1836.72 493.412C1834.6 494.486 1832.1 495.023 1829.2 495.023C1824.84 495.023 1821.39 493.852 1818.85 491.508C1816.34 489.164 1815.09 486.153 1815.09 482.475H1820.02C1820.02 484.721 1820.71 486.674 1822.07 488.334C1823.47 489.962 1825.85 490.775 1829.2 490.775C1832.46 490.775 1834.78 489.945 1836.18 488.285C1837.58 486.625 1838.28 484.688 1838.28 482.475ZM1921.19 504.154L1896.58 571H1890.33L1917.19 499.906H1921.54L1921.19 504.154ZM1943.56 571L1918.9 504.154L1918.56 499.906H1922.9L1949.81 571H1943.56ZM1939.16 545.902V551.078H1901.42V545.902H1939.16ZM2003.22 499.906V505.082H1966.36V571H1960.4V499.906H2003.22ZM2039.7 542.045H2019.44V536.918H2039.7C2043.93 536.918 2047.37 536.234 2050 534.867C2052.67 533.467 2054.61 531.579 2055.81 529.203C2057.05 526.827 2057.67 524.158 2057.67 521.195C2057.67 518.298 2057.05 515.629 2055.81 513.188C2054.61 510.746 2052.67 508.793 2050 507.328C2047.37 505.831 2043.93 505.082 2039.7 505.082H2021.54V571H2015.53V499.906H2039.7C2044.91 499.906 2049.29 500.801 2052.83 502.592C2056.41 504.382 2059.12 506.872 2060.94 510.062C2062.76 513.253 2063.67 516.931 2063.67 521.098C2063.67 525.46 2062.76 529.219 2060.94 532.377C2059.12 535.502 2056.43 537.895 2052.88 539.555C2049.33 541.215 2044.94 542.045 2039.7 542.045ZM2093.75 504.154L2069.14 571H2062.89L2089.75 499.906H2094.09L2093.75 504.154ZM2116.12 571L2091.46 504.154L2091.12 499.906H2095.46L2122.37 571H2116.12ZM2111.72 545.902V551.078H2073.98V545.902H2111.72ZM2157.08 542.045H2136.82V536.918H2157.08C2161.31 536.918 2164.75 536.234 2167.38 534.867C2170.05 533.467 2171.99 531.579 2173.2 529.203C2174.43 526.827 2175.05 524.158 2175.05 521.195C2175.05 518.298 2174.43 515.629 2173.2 513.188C2171.99 510.746 2170.05 508.793 2167.38 507.328C2164.75 505.831 2161.31 505.082 2157.08 505.082H2138.92V571H2132.91V499.906H2157.08C2162.29 499.906 2166.67 500.801 2170.22 502.592C2173.8 504.382 2176.5 506.872 2178.32 510.062C2180.15 513.253 2181.06 516.931 2181.06 521.098C2181.06 525.46 2180.15 529.219 2178.32 532.377C2176.5 535.502 2173.81 537.895 2170.27 539.555C2166.72 541.215 2162.32 542.045 2157.08 542.045ZM2242.34 531.791V536.918H2199.12V531.791H2242.34ZM2200.54 499.906V571H2194.53V499.906H2200.54ZM2247.17 499.906V571H2241.16V499.906H2247.17ZM2271.54 560.551L2312.01 499.906H2318.02V571H2312.01V510.258L2271.54 571H2265.53V499.906H2271.54V560.551ZM2342.63 560.551L2383.11 499.906H2389.11V571H2383.11V510.258L2342.63 571H2336.62V499.906H2342.63V560.551ZM2372.37 482.475H2377.35C2377.35 484.916 2376.78 487.081 2375.64 488.969C2374.53 490.857 2372.92 492.338 2370.8 493.412C2368.69 494.486 2366.18 495.023 2363.28 495.023C2358.92 495.023 2355.47 493.852 2352.93 491.508C2350.43 489.164 2349.17 486.153 2349.17 482.475H2354.1C2354.1 484.721 2354.79 486.674 2356.15 488.334C2357.55 489.962 2359.93 490.775 2363.28 490.775C2366.54 490.775 2368.87 489.945 2370.27 488.285C2371.67 486.625 2372.37 484.688 2372.37 482.475ZM2455.28 504.154L2430.67 571H2424.42L2451.27 499.906H2455.62L2455.28 504.154ZM2477.64 571L2452.98 504.154L2452.64 499.906H2456.98L2483.89 571H2477.64ZM2473.24 545.902V551.078H2435.5V545.902H2473.24ZM2542.63 499.906V505.082H2507.81V499.906H2542.63ZM2547.41 499.906V571H2541.41V499.906H2547.41ZM2505.67 499.906H2511.62L2509.82 532.768C2509.49 538.204 2509.07 543.005 2508.55 547.172C2508.06 551.339 2507.38 554.936 2506.5 557.963C2505.62 560.958 2504.46 563.415 2503.03 565.336C2501.63 567.257 2499.89 568.689 2497.8 569.633C2495.75 570.544 2493.26 571 2490.33 571H2488.28V565.873L2490.09 565.775C2492.01 565.71 2493.67 565.336 2495.07 564.652C2496.5 563.969 2497.71 562.878 2498.68 561.381C2499.69 559.851 2500.52 557.8 2501.17 555.229C2501.86 552.657 2502.41 549.467 2502.83 545.658C2503.29 541.85 2503.66 537.309 2503.96 532.035L2505.67 499.906ZM2569.19 530.717H2588.87C2594.01 530.717 2598.33 531.563 2601.81 533.256C2605.32 534.916 2607.98 537.26 2609.77 540.287C2611.56 543.282 2612.45 546.781 2612.45 550.785C2612.45 553.747 2611.95 556.465 2610.94 558.939C2609.93 561.413 2608.43 563.562 2606.45 565.385C2604.46 567.175 2602 568.559 2599.07 569.535C2596.14 570.512 2592.74 571 2588.87 571H2565.29V499.906H2571.29V565.873H2588.87C2593.04 565.873 2596.4 565.173 2598.98 563.773C2601.55 562.341 2603.44 560.469 2604.64 558.158C2605.85 555.847 2606.45 553.357 2606.45 550.688C2606.45 548.051 2605.85 545.609 2604.64 543.363C2603.44 541.117 2601.55 539.311 2598.98 537.943C2596.4 536.544 2593.04 535.844 2588.87 535.844H2569.19V530.717ZM2666.95 542.045H2642.78L2640.04 540.629C2635.19 539.132 2631.46 536.723 2628.86 533.402C2626.29 530.082 2625 526.046 2625 521.293C2625 516.703 2625.96 512.829 2627.88 509.672C2629.84 506.482 2632.62 504.057 2636.23 502.396C2639.85 500.736 2644.13 499.906 2649.07 499.906H2670.85V571H2664.85V505.082H2649.07C2643.08 505.082 2638.58 506.531 2635.55 509.428C2632.52 512.292 2631.01 516.231 2631.01 521.244C2631.01 524.304 2631.64 527.006 2632.91 529.35C2634.18 531.693 2636.04 533.533 2638.48 534.867C2640.95 536.202 2643.93 536.869 2647.41 536.869H2666.99L2666.95 542.045ZM2646.29 538.383L2628.86 571H2622.37L2640.19 538.383H2646.29ZM2735.79 531.791V536.918H2692.58V531.791H2735.79ZM2694 499.906V571H2687.99V499.906H2694ZM2740.63 499.906V571H2734.62V499.906H2740.63ZM2803.08 548.832H2809.08C2808.6 553.617 2807.28 557.751 2805.13 561.234C2802.98 564.685 2800.05 567.338 2796.34 569.193C2792.63 571.049 2788.15 571.977 2782.91 571.977C2778.88 571.977 2775.21 571.212 2771.93 569.682C2768.67 568.152 2765.87 565.987 2763.53 563.188C2761.18 560.355 2759.38 556.97 2758.11 553.031C2756.84 549.092 2756.2 544.714 2756.2 539.896V531.01C2756.2 526.192 2756.84 521.83 2758.11 517.924C2759.38 513.985 2761.2 510.6 2763.58 507.768C2765.95 504.936 2768.8 502.755 2772.12 501.225C2775.44 499.695 2779.18 498.93 2783.35 498.93C2788.4 498.93 2792.76 499.857 2796.44 501.713C2800.12 503.536 2803.01 506.173 2805.13 509.623C2807.28 513.074 2808.6 517.24 2809.08 522.123H2803.08C2802.62 518.282 2801.61 515.027 2800.05 512.357C2798.49 509.688 2796.32 507.654 2793.56 506.254C2790.82 504.822 2787.42 504.105 2783.35 504.105C2780.03 504.105 2777.07 504.74 2774.46 506.01C2771.86 507.279 2769.65 509.102 2767.82 511.479C2766 513.822 2764.6 516.638 2763.62 519.926C2762.68 523.214 2762.21 526.876 2762.21 530.912V539.896C2762.21 543.803 2762.66 547.4 2763.58 550.688C2764.49 553.975 2765.82 556.824 2767.58 559.232C2769.37 561.641 2771.55 563.513 2774.12 564.848C2776.69 566.182 2779.62 566.85 2782.91 566.85C2787.11 566.85 2790.61 566.182 2793.41 564.848C2796.24 563.48 2798.44 561.462 2800 558.793C2801.56 556.124 2802.59 552.803 2803.08 548.832ZM2820.36 563.09L2833.99 543.9L2839.89 543.949V544.584L2825.54 563.09H2820.36ZM2820.36 524.906H2825.54L2839.89 543.656V544.291L2833.99 544.34L2820.36 524.906ZM2835.94 563.09L2849.56 543.9L2855.47 543.949V544.584L2841.12 563.09H2835.94ZM2835.94 524.906H2841.12L2855.47 543.656V544.291L2849.56 544.34L2835.94 524.906Z" fill="#007FBE"/>
<path d="M1042.14 236.41L995.07 366H975.832L1030.03 223.812H1042.43L1042.14 236.41ZM1081.59 366L1034.43 236.41L1034.13 223.812H1046.54L1100.93 366H1081.59ZM1079.15 313.363V328.793H999.27V313.363H1079.15ZM1185.5 260.336V275.277H1136.67V366H1118.61V260.336H1185.5ZM1219.29 280.648V406.625H1201.12V260.336H1217.73L1219.29 280.648ZM1290.48 312.289V314.34C1290.48 322.022 1289.57 329.151 1287.75 335.727C1285.92 342.237 1283.25 347.901 1279.74 352.719C1276.29 357.536 1272.02 361.28 1266.95 363.949C1261.87 366.618 1256.04 367.953 1249.46 367.953C1242.76 367.953 1236.83 366.846 1231.69 364.633C1226.55 362.419 1222.19 359.197 1218.61 354.965C1215.02 350.733 1212.16 345.655 1210.01 339.73C1207.93 333.806 1206.5 327.133 1205.71 319.711V308.773C1206.5 300.961 1207.96 293.962 1210.11 287.777C1212.26 281.592 1215.09 276.319 1218.61 271.957C1222.19 267.53 1226.52 264.177 1231.59 261.898C1236.67 259.555 1242.53 258.383 1249.17 258.383C1255.81 258.383 1261.7 259.685 1266.85 262.289C1271.99 264.828 1276.32 268.474 1279.84 273.227C1283.35 277.979 1285.99 283.676 1287.75 290.316C1289.57 296.892 1290.48 304.216 1290.48 312.289ZM1272.32 314.34V312.289C1272.32 307.016 1271.76 302.068 1270.66 297.445C1269.55 292.758 1267.82 288.656 1265.48 285.141C1263.2 281.56 1260.27 278.76 1256.69 276.742C1253.11 274.659 1248.85 273.617 1243.9 273.617C1239.34 273.617 1235.37 274.398 1231.98 275.961C1228.66 277.523 1225.83 279.639 1223.49 282.309C1221.14 284.913 1219.22 287.908 1217.73 291.293C1216.29 294.613 1215.22 298.064 1214.5 301.645V326.938C1215.81 331.495 1217.63 335.792 1219.97 339.828C1222.32 343.799 1225.44 347.022 1229.35 349.496C1233.25 351.905 1238.17 353.109 1244.09 353.109C1248.98 353.109 1253.18 352.1 1256.69 350.082C1260.27 347.999 1263.2 345.167 1265.48 341.586C1267.82 338.005 1269.55 333.904 1270.66 329.281C1271.76 324.594 1272.32 319.613 1272.32 314.34ZM1375.83 347.934V293.539C1375.83 289.372 1374.99 285.759 1373.29 282.699C1371.67 279.574 1369.19 277.165 1365.87 275.473C1362.55 273.78 1358.45 272.934 1353.57 272.934C1349.01 272.934 1345.01 273.715 1341.55 275.277C1338.17 276.84 1335.5 278.891 1333.55 281.43C1331.66 283.969 1330.71 286.703 1330.71 289.633H1312.65C1312.65 285.857 1313.62 282.113 1315.58 278.402C1317.53 274.691 1320.33 271.339 1323.98 268.344C1327.69 265.284 1332.11 262.875 1337.26 261.117C1342.47 259.294 1348.26 258.383 1354.64 258.383C1362.32 258.383 1369.09 259.685 1374.95 262.289C1380.88 264.893 1385.5 268.832 1388.82 274.105C1392.21 279.314 1393.9 285.857 1393.9 293.734V342.953C1393.9 346.469 1394.19 350.212 1394.78 354.184C1395.43 358.155 1396.37 361.573 1397.61 364.438V366H1378.76C1377.85 363.917 1377.13 361.15 1376.61 357.699C1376.09 354.184 1375.83 350.928 1375.83 347.934ZM1378.96 301.938L1379.15 314.633H1360.89C1355.75 314.633 1351.16 315.056 1347.12 315.902C1343.08 316.684 1339.7 317.888 1336.96 319.516C1334.23 321.143 1332.15 323.194 1330.71 325.668C1329.28 328.077 1328.57 330.909 1328.57 334.164C1328.57 337.484 1329.32 340.512 1330.81 343.246C1332.31 345.98 1334.56 348.161 1337.55 349.789C1340.61 351.352 1344.35 352.133 1348.78 352.133C1354.32 352.133 1359.2 350.961 1363.43 348.617C1367.66 346.273 1371.01 343.409 1373.49 340.023C1376.03 336.638 1377.39 333.35 1377.59 330.16L1385.3 338.852C1384.85 341.586 1383.61 344.613 1381.59 347.934C1379.58 351.254 1376.87 354.444 1373.49 357.504C1370.17 360.499 1366.2 363.005 1361.57 365.023C1357.02 366.977 1351.87 367.953 1346.14 367.953C1338.98 367.953 1332.7 366.553 1327.3 363.754C1321.96 360.954 1317.79 357.211 1314.8 352.523C1311.87 347.771 1310.4 342.465 1310.4 336.605C1310.4 330.941 1311.51 325.961 1313.72 321.664C1315.94 317.302 1319.13 313.689 1323.29 310.824C1327.46 307.895 1332.47 305.681 1338.33 304.184C1344.19 302.686 1350.73 301.938 1357.96 301.938H1378.96ZM1440.38 280.648V406.625H1422.22V260.336H1438.82L1440.38 280.648ZM1511.57 312.289V314.34C1511.57 322.022 1510.66 329.151 1508.84 335.727C1507.02 342.237 1504.35 347.901 1500.83 352.719C1497.38 357.536 1493.12 361.28 1488.04 363.949C1482.96 366.618 1477.13 367.953 1470.56 367.953C1463.85 367.953 1457.93 366.846 1452.79 364.633C1447.64 362.419 1443.28 359.197 1439.7 354.965C1436.12 350.733 1433.25 345.655 1431.11 339.73C1429.02 333.806 1427.59 327.133 1426.81 319.711V308.773C1427.59 300.961 1429.05 293.962 1431.2 287.777C1433.35 281.592 1436.18 276.319 1439.7 271.957C1443.28 267.53 1447.61 264.177 1452.69 261.898C1457.77 259.555 1463.62 258.383 1470.27 258.383C1476.91 258.383 1482.8 259.685 1487.94 262.289C1493.08 264.828 1497.41 268.474 1500.93 273.227C1504.45 277.979 1507.08 283.676 1508.84 290.316C1510.66 296.892 1511.57 304.216 1511.57 312.289ZM1493.41 314.34V312.289C1493.41 307.016 1492.86 302.068 1491.75 297.445C1490.64 292.758 1488.92 288.656 1486.57 285.141C1484.3 281.56 1481.37 278.76 1477.79 276.742C1474.2 274.659 1469.94 273.617 1464.99 273.617C1460.43 273.617 1456.46 274.398 1453.08 275.961C1449.76 277.523 1446.93 279.639 1444.58 282.309C1442.24 284.913 1440.32 287.908 1438.82 291.293C1437.39 294.613 1436.31 298.064 1435.6 301.645V326.938C1436.9 331.495 1438.72 335.792 1441.07 339.828C1443.41 343.799 1446.54 347.022 1450.44 349.496C1454.35 351.905 1459.26 353.109 1465.19 353.109C1470.07 353.109 1474.27 352.1 1477.79 350.082C1481.37 347.999 1484.3 345.167 1486.57 341.586C1488.92 338.005 1490.64 333.904 1491.75 329.281C1492.86 324.594 1493.41 319.613 1493.41 314.34ZM1606.3 306.137V320.785H1550.44V306.137H1606.3ZM1554.25 260.336V366H1536.18V260.336H1554.25ZM1620.95 260.336V366H1602.79V260.336H1620.95ZM1712.36 347.934V293.539C1712.36 289.372 1711.51 285.759 1709.82 282.699C1708.19 279.574 1705.71 277.165 1702.39 275.473C1699.07 273.78 1694.97 272.934 1690.09 272.934C1685.53 272.934 1681.53 273.715 1678.08 275.277C1674.69 276.84 1672.02 278.891 1670.07 281.43C1668.18 283.969 1667.24 286.703 1667.24 289.633H1649.17C1649.17 285.857 1650.15 282.113 1652.1 278.402C1654.05 274.691 1656.85 271.339 1660.5 268.344C1664.21 265.284 1668.64 262.875 1673.78 261.117C1678.99 259.294 1684.78 258.383 1691.16 258.383C1698.85 258.383 1705.62 259.685 1711.48 262.289C1717.4 264.893 1722.02 268.832 1725.34 274.105C1728.73 279.314 1730.42 285.857 1730.42 293.734V342.953C1730.42 346.469 1730.71 350.212 1731.3 354.184C1731.95 358.155 1732.9 361.573 1734.13 364.438V366H1715.29C1714.37 363.917 1713.66 361.15 1713.14 357.699C1712.62 354.184 1712.36 350.928 1712.36 347.934ZM1715.48 301.938L1715.68 314.633H1697.41C1692.27 314.633 1687.68 315.056 1683.64 315.902C1679.61 316.684 1676.22 317.888 1673.49 319.516C1670.75 321.143 1668.67 323.194 1667.24 325.668C1665.81 328.077 1665.09 330.909 1665.09 334.164C1665.09 337.484 1665.84 340.512 1667.34 343.246C1668.83 345.98 1671.08 348.161 1674.07 349.789C1677.13 351.352 1680.88 352.133 1685.3 352.133C1690.84 352.133 1695.72 350.961 1699.95 348.617C1704.18 346.273 1707.54 343.409 1710.01 340.023C1712.55 336.638 1713.92 333.35 1714.11 330.16L1721.83 338.852C1721.37 341.586 1720.14 344.613 1718.12 347.934C1716.1 351.254 1713.4 354.444 1710.01 357.504C1706.69 360.499 1702.72 363.005 1698.1 365.023C1693.54 366.977 1688.4 367.953 1682.67 367.953C1675.51 367.953 1669.22 366.553 1663.82 363.754C1658.48 360.954 1654.32 357.211 1651.32 352.523C1648.39 347.771 1646.93 342.465 1646.93 336.605C1646.93 330.941 1648.03 325.961 1650.25 321.664C1652.46 317.302 1655.65 313.689 1659.82 310.824C1663.98 307.895 1669 305.681 1674.86 304.184C1680.71 302.686 1687.26 301.938 1694.48 301.938H1715.48ZM1828.08 260.336V366H1810.01V260.336H1828.08ZM1897.41 260.336L1847.32 320.883H1822.02L1819.29 305.062H1839.99L1875.44 260.336H1897.41ZM1877.98 366L1839.11 318.148L1850.73 305.062L1900.93 366H1877.98ZM1909.72 314.34V312.094C1909.72 304.477 1910.83 297.413 1913.04 290.902C1915.25 284.327 1918.44 278.63 1922.61 273.812C1926.78 268.93 1931.82 265.154 1937.75 262.484C1943.67 259.75 1950.31 258.383 1957.67 258.383C1965.09 258.383 1971.76 259.75 1977.69 262.484C1983.68 265.154 1988.76 268.93 1992.92 273.812C1997.15 278.63 2000.38 284.327 2002.59 290.902C2004.8 297.413 2005.91 304.477 2005.91 312.094V314.34C2005.91 321.957 2004.8 329.021 2002.59 335.531C2000.38 342.042 1997.15 347.738 1992.92 352.621C1988.76 357.439 1983.71 361.215 1977.79 363.949C1971.93 366.618 1965.29 367.953 1957.86 367.953C1950.44 367.953 1943.77 366.618 1937.84 363.949C1931.92 361.215 1926.84 357.439 1922.61 352.621C1918.44 347.738 1915.25 342.042 1913.04 335.531C1910.83 329.021 1909.72 321.957 1909.72 314.34ZM1927.79 312.094V314.34C1927.79 319.613 1928.4 324.594 1929.64 329.281C1930.88 333.904 1932.73 338.005 1935.21 341.586C1937.75 345.167 1940.9 347.999 1944.68 350.082C1948.46 352.1 1952.85 353.109 1957.86 353.109C1962.81 353.109 1967.14 352.1 1970.85 350.082C1974.63 347.999 1977.75 345.167 1980.23 341.586C1982.7 338.005 1984.56 333.904 1985.79 329.281C1987.1 324.594 1987.75 319.613 1987.75 314.34V312.094C1987.75 306.885 1987.1 301.97 1985.79 297.348C1984.56 292.66 1982.67 288.526 1980.13 284.945C1977.65 281.299 1974.53 278.435 1970.75 276.352C1967.04 274.268 1962.68 273.227 1957.67 273.227C1952.72 273.227 1948.36 274.268 1944.58 276.352C1940.87 278.435 1937.75 281.299 1935.21 284.945C1932.73 288.526 1930.88 292.66 1929.64 297.348C1928.4 301.97 1927.79 306.885 1927.79 312.094ZM2089.31 341.977L2125.25 260.336H2142.63L2095.56 366H2083.06L2036.18 260.336H2053.57L2089.31 341.977ZM2048.29 260.336V366H2030.23V260.336H2048.29ZM2129.74 366V260.336H2147.9V366H2129.74ZM2247.41 260.336V275.277H2194V260.336H2247.41ZM2196.63 260.336V366H2178.57V260.336H2196.63ZM2263.43 260.336V366H2245.27V260.336H2263.43ZM2354.74 347.934V293.539C2354.74 289.372 2353.89 285.759 2352.2 282.699C2350.57 279.574 2348.1 277.165 2344.78 275.473C2341.46 273.78 2337.36 272.934 2332.47 272.934C2327.92 272.934 2323.91 273.715 2320.46 275.277C2317.08 276.84 2314.41 278.891 2312.45 281.43C2310.57 283.969 2309.62 286.703 2309.62 289.633H2291.55C2291.55 285.857 2292.53 282.113 2294.48 278.402C2296.44 274.691 2299.24 271.339 2302.88 268.344C2306.59 265.284 2311.02 262.875 2316.16 261.117C2321.37 259.294 2327.17 258.383 2333.55 258.383C2341.23 258.383 2348 259.685 2353.86 262.289C2359.78 264.893 2364.41 268.832 2367.73 274.105C2371.11 279.314 2372.8 285.857 2372.8 293.734V342.953C2372.8 346.469 2373.1 350.212 2373.68 354.184C2374.33 358.155 2375.28 361.573 2376.52 364.438V366H2357.67C2356.76 363.917 2356.04 361.15 2355.52 357.699C2355 354.184 2354.74 350.928 2354.74 347.934ZM2357.86 301.938L2358.06 314.633H2339.8C2334.65 314.633 2330.06 315.056 2326.03 315.902C2321.99 316.684 2318.61 317.888 2315.87 319.516C2313.14 321.143 2311.05 323.194 2309.62 325.668C2308.19 328.077 2307.47 330.909 2307.47 334.164C2307.47 337.484 2308.22 340.512 2309.72 343.246C2311.22 345.98 2313.46 348.161 2316.46 349.789C2319.52 351.352 2323.26 352.133 2327.69 352.133C2333.22 352.133 2338.1 350.961 2342.34 348.617C2346.57 346.273 2349.92 343.409 2352.39 340.023C2354.93 336.638 2356.3 333.35 2356.5 330.16L2364.21 338.852C2363.76 341.586 2362.52 344.613 2360.5 347.934C2358.48 351.254 2355.78 354.444 2352.39 357.504C2349.07 360.499 2345.1 363.005 2340.48 365.023C2335.92 366.977 2330.78 367.953 2325.05 367.953C2317.89 367.953 2311.61 366.553 2306.2 363.754C2300.86 360.954 2296.7 357.211 2293.7 352.523C2290.77 347.771 2289.31 342.465 2289.31 336.605C2289.31 330.941 2290.42 325.961 2292.63 321.664C2294.84 317.302 2298.03 313.689 2302.2 310.824C2306.37 307.895 2311.38 305.681 2317.24 304.184C2323.1 302.686 2329.64 301.938 2336.87 301.938H2357.86ZM2472.9 306.137V320.785H2417.04V306.137H2472.9ZM2420.85 260.336V366H2402.79V260.336H2420.85ZM2487.55 260.336V366H2469.39V260.336H2487.55ZM2536.28 260.336V366H2518.12V260.336H2536.28ZM2516.75 232.309C2516.75 229.379 2517.63 226.905 2519.39 224.887C2521.21 222.868 2523.88 221.859 2527.39 221.859C2530.85 221.859 2533.48 222.868 2535.3 224.887C2537.19 226.905 2538.14 229.379 2538.14 232.309C2538.14 235.108 2537.19 237.517 2535.3 239.535C2533.48 241.488 2530.85 242.465 2527.39 242.465C2523.88 242.465 2521.21 241.488 2519.39 239.535C2517.63 237.517 2516.75 235.108 2516.75 232.309ZM2586.67 315.609H2606.2L2575.64 366H2556.11L2586.67 315.609ZM2601.81 260.336H2645.95V366H2627.88V274.984H2601.81C2596.67 274.984 2592.47 275.863 2589.21 277.621C2585.96 279.314 2583.58 281.527 2582.08 284.262C2580.58 286.996 2579.84 289.828 2579.84 292.758C2579.84 295.622 2580.52 298.389 2581.89 301.059C2583.25 303.663 2585.4 305.811 2588.33 307.504C2591.26 309.197 2595.04 310.043 2599.66 310.043H2632.77V324.887H2599.66C2593.61 324.887 2588.23 324.073 2583.55 322.445C2578.86 320.818 2574.89 318.572 2571.63 315.707C2568.38 312.777 2565.9 309.359 2564.21 305.453C2562.52 301.482 2561.67 297.185 2561.67 292.562C2561.67 287.94 2562.55 283.676 2564.31 279.77C2566.13 275.863 2568.74 272.445 2572.12 269.516C2575.57 266.586 2579.77 264.34 2584.72 262.777C2589.73 261.15 2595.43 260.336 2601.81 260.336Z" fill="#007FBE"/>
</g>
<defs>
<clipPath id="clip0_1_18">
<rect width="2903" height="895" fill="white"/>
</clipPath>
</defs>
</svg>
