<?xml version="1.0" encoding="utf-8"?>
<svg xmlns="http://www.w3.org/2000/svg" xmlns:xlink="http://www.w3.org/1999/xlink" width="32" height="32" viewBox="0 0 1024 1024">
  <style>
    path { transform-origin: center; transform: scale(0.95); }
  </style>
  <path fill="#FED227" d="M65.6463 538.56C58.4482 419.989 98.6795 303.42 177.479 214.529C256.491 125.541 367.656 71.6388 486.458 64.711C605.689 57.8909 722.722 98.8668 811.66 178.571C900.024 258.196 953.137 369.663 959.315 488.449C961.6 530.689 956.891 571.866 948.274 613.19C921.246 729.25 849.028 829.729 747.637 892.341C703.383 919.602 655.855 937.874 605.258 949.348C574.489 955.228 543.349 959.031 511.98 959.003C479.885 959.644 444.876 955.224 413.69 947.703C408.664 946.977 403.479 945.427 398.548 944.181C375.154 938.124 352.325 930.066 330.311 920.096C295.255 903.977 262.624 884.511 232.432 860.429C153.538 797.072 98.4036 708.884 75.997 610.211C72.4758 594.217 69.7196 578.064 67.738 561.807C66.8512 554.072 66.5137 546.289 65.6463 538.56Z"/>
  <path fill="#007FBE" d="M296.276 181.724C346.084 176.976 390.268 213.608 394.831 263.433C399.394 313.259 362.598 357.306 312.756 361.684C263.175 366.038 219.409 329.477 214.87 279.913C210.332 230.349 246.729 186.447 296.276 181.724Z"/>
</svg> 